<?xml version="1.0" standalone="no"?>
<!DOCTYPE svg PUBLIC "-//W3C//DTD SVG 20010904//EN"
 "http://www.w3.org/TR/2001/REC-SVG-20010904/DTD/svg10.dtd">
<svg version="1.0" xmlns="http://www.w3.org/2000/svg"
 width="681.000000pt" height="617.000000pt" viewBox="0 0 681.000000 617.000000"
 preserveAspectRatio="xMidYMid meet">

<g transform="translate(0.000000,617.000000) scale(0.100000,-0.100000)"
fill="#6c6ce4" stroke="none">
<path d="M2950 5870 c-1108 -3 -2026 -9 -2040 -14 -14 -4 -53 -16 -86 -26 -82
-25 -188 -79 -249 -127 -102 -81 -202 -225 -252 -364 l-26 -74 -8 -455 c-5
-250 -7 -1209 -5 -2130 4 -1673 4 -1675 25 -1755 12 -44 34 -107 50 -140 60
-129 217 -288 353 -356 79 -40 154 -58 283 -69 64 -6 1073 -10 2425 -10 2617
-1 2398 -7 2580 81 93 45 115 61 195 142 108 111 164 208 200 353 l25 97 0
2076 c0 1319 -4 2100 -10 2141 -7 45 -27 99 -65 175 -113 227 -289 374 -520
436 -100 27 -120 27 -2875 19z"/>
<path fill="#f97b8b" d="M2895 -194 c39 -15 88 -39 110 -53 59 -39 184
-162 210 -208 38 -67 74 -198 89 -327 l6 -48 -383 0 c-210 0 -1520 -1 -2912
-3 l-2530 -2 2 85 c4 146 25 216 95 320 94 140 254 238 422 259 28 3 1124 5
2436 5 l2385 -1 70 -27z m-2470 -808 l2880 -2 4 -1503 4 -1503 -2709 0 
c-1490 0 -2800 -3 -2911 -7 l-203 -6 0 1517 0 1518 28 -7 c15 -3 1323 -6 
2907 -7z m2883 -3215 l3 -35 -75 4 c-76 3 -76 3 -75 -22 1 -17 3 -19 6 -7 
4 14 16 17 69 17 l64 0 0 -303 c0 -264 -2 -311 -19 -369 -25 -92 -73 -170 
-156 -254 -81 -81 -136 -114 -243 -146 l-77 -23 -2390 0 -2390 0 -85 29 
c-222 74 -354 192 -417 371 l-27 80 -4 338 c-2 186 -1 345 2 353 5 13 341 
14 2908 9 l2903 -7 3 -35z"/>

<path d="M4542 5545 c-108 -47 -160 -149 -132 -256 24 -89 142 -170 225 -155
53 10 119 61 148 115 66 121 7 256 -129 297 -58 17 -70 17 -112 -1z m97 -136
c43 -15 56 -41 37 -77 -16 -31 -56 -62 -79 -62 -15 0 -49 34 -66 67 -15 29 -4
53 33 69 38 16 36 16 75 3z" fill="#f97b8b"/>

<path d="M5085 5536 c-87 -41 -116 -89 -117 -192 0 -68 10 -93 56 -142 43 -46
77 -62 133 -62 119 0 213 89 213 199 -1 98 -48 166 -143 206 -50 21 -84 19
-142 -9z m144 -149 c24 -26 21 -48 -12 -84 -36 -40 -95 -26 -117 27 -10 25
-10 34 4 55 23 35 92 36 125 2z" fill="#f97b8b"/>

<path d="M5642 5534 c-79 -39 -106 -81 -110 -169 -3 -57 0 -80 16 -112 27 -53
92 -110 140 -122 87 -24 215 53 243 147 28 94 -25 206 -120 255 -68 34 -103
34 -169 1z m142 -135 c30 -23 30 -51 0 -96 -26 -40 -95 -30 -119 18 -20 38
-19 46 10 74 30 31 73 32 109 4z" fill="#f97b8b"/>

<path d="M860 5498 c-44 -30 -80 -92 -80 -139 0 -69 79 -159 140 -159 43 0
111 52 139 107 18 36 13 97 -11 133 -51 74 -128 98 -188 58z" fill="#6c6ce4"/>
<path d="M1314 5491 c-99 -61 -96 -213 6 -266 91 -47 202 29 202 140 0 111
-116 182 -208 126z" fill="#f97b8b"/>
<path d="M1774 5491 c-75 -46 -100 -159 -48 -221 70 -83 170 -77 235 13 35 48
37 92 9 148 -38 74 -128 101 -196 60z" fill="#6c6ce4"/>

<!-- Settings Icon (Yellow) with center gap -->
<g transform="translate(700, 200) scale(220)">
    <path d="M12.22 2h-.44a2 2 0 0 0-2 2v.18a2 2 0 0 1-1 1.73l-.43.25a2 2 0 0 1-2 0l-.15-.08a2 2 0 0 0-2.73.73l-.22.38a2 2 0 0 0 .73 2.73l.15.1a2 2 0 0 1 1 1.72v.51a2 2 0 0 1-1 1.74l-.15.09a2 2 0 0 0-.73 2.73l.22.38a2 2 0 0 0 2.73.73l.15-.08a2 2 0 0 1 2 0l.43.25a2 2 0 0 1 1 1.73V20a2 2 0 0 0 2 2h.44a2 2 0 0 0 2-2v-.18a2 2 0 0 1 1-1.73l.43-.25a2 2 0 0 1 2 0l.15.08a2 2 0 0 0 2.73-.73l.22-.39a2 2 0 0 0-.73-2.73l-.15-.08a2 2 0 0 1-1-1.74v-.5a2 2 0 0 1 1-1.74l.15-.09a2 2 0 0 0 .73-2.73l-.22-.38a2 2 0 0 0-2.73-.73l-.15.08a2 2 0 0 1-2 0l-.43-.25a2 2 0 0 1-1-1.73V4a2 2 0 0 0-2-2z" fill="#f9d74b"/>
    <!-- Center gap filled with background color -->
        <!-- Center gap filled with background color -->
    <circle cx="12" cy="12" r="3" fill="#6c6ce4"/>
</g>

</g>
</svg>